<svg version="1" xmlns="http://www.w3.org/2000/svg" width="682.667" height="682.667" viewBox="0 0 512.000000 512.000000"><path d="M129 6.4c-7.4 2-12 4.7-18.5 10.7C98.9 28 96 36.6 96 60.2V76H75c-26.1 0-29 .8-39.1 10.9C24.4 98.5 25.5 76.3 25.5 289v184.5l2.7 5.7c3.7 7.9 9.8 14.2 17.7 18.1l6.6 3.2h406l5.7-2.7c7.9-3.7 14.2-9.8 18.1-17.7l3.2-6.6v-370l-2.9-6.3c-3.7-8-12.3-16.2-20.1-19.1-5-1.9-7.7-2.1-26.5-2.1h-21V60.2c0-23.2-2.9-32-14-42.6-6.4-6.1-13.2-9.9-20.8-11.5-8-1.7-31.6-1.4-38.7.4-12.4 3.2-23.1 12.3-28.9 24.5-3.1 6.4-3.1 6.8-3.6 25.5l-.5 19h-106l-.5-19-.5-19.1-3.4-6.9c-5.9-11.9-16.5-20.8-28.6-23.9-7.3-2-33.8-2.1-40.5-.2zm32.9 35.1c5.1 2.6 5.2 3.7 4.9 49.3l-.3 42.1-2.3 2.3c-2 2.1-3.3 2.3-14.1 2.6l-11.9.4-3.3-3-3.4-3v-43c0-41.6.1-43.1 2-45.2 3-3.3 5.1-3.9 15.8-3.9 6.7-.1 10.7.4 12.6 1.4zm214.5 1.4l2.6 2.4v87.5l-3.2 2.7c-3.1 2.6-3.4 2.7-15.1 2.3-11.6-.3-11.9-.4-14.3-3.1l-2.4-2.8V90c0-24.1.4-42.9 1-44.4 1.7-4.5 5.3-5.6 17.7-5.4 10.2.3 11.4.5 13.7 2.7zM140 222v40H61v-80h79v40zm106.8-.3l-.3 39.8-44.2.3-44.3.2v-80h89l-.2 39.7zm106.2.3v40l-44.2-.2-44.3-.3-.3-39.8-.2-39.7h89v40zm97 0v40h-79v-80h79v40zM140 323.5V368H61v-89h79v44.5zm106.8.2l.2 44.3h-89v-43.8c0-24.1.3-44.2.7-44.5.3-.4 20.3-.6 44.2-.5l43.6.3.3 44.2zm106 0l.2 44.3h-89v-43.8c0-24.1.3-44.2.7-44.5.3-.4 20.3-.6 44.2-.5l43.6.3.3 44.2zm97.2-.2V368h-79v-89h79v44.5zm-310 102V465H61v-79h79v39.5zm107 0V465h-89v-79h89v39.5zm106 0V465h-89v-79h89v39.5zm97 0V465h-79v-79h79v39.5z"/></svg>